<?xml version="1.0" standalone="no"?>
<!DOCTYPE svg PUBLIC "-//W3C//DTD SVG 20010904//EN"
 "http://www.w3.org/TR/2001/REC-SVG-20010904/DTD/svg10.dtd">
<svg version="1.0" xmlns="http://www.w3.org/2000/svg"
 width="512.000000pt" height="512.000000pt" viewBox="0 0 512.000000 512.000000"
 preserveAspectRatio="xMidYMid meet">
<metadata>
Created by potrace 1.11, written by Peter Selinger 2001-2013
</metadata>
<g transform="translate(0.000000,512.000000) scale(0.100000,-0.100000)"
fill="#000000" stroke="none">
<path d="M2745 4836 l-40 -12 -3 -139 c-4 -220 32 -406 102 -512 27 -42 36
-48 70 -51 66 -6 82 4 129 75 92 142 167 359 175 510 l5 103 -44 20 c-38 17
-65 19 -199 19 -90 0 -172 -6 -195 -13z m232 -62 c54 -8 100 -18 103 -20 13
-14 11 -158 -4 -230 -38 -182 -86 -285 -155 -331 -45 -30 -55 -29 -85 10 -20
26 -33 69 -58 195 l-32 161 19 98 c23 123 22 121 53 126 51 8 62 7 159 -9z"/>
<path d="M926 4668 c4 -68 10 -130 14 -138 5 -8 49 -35 99 -59 l90 -45 204
-295 c112 -163 210 -307 217 -321 19 -35 89 -123 107 -134 19 -10 104 -12 389
-7 122 2 227 0 233 -3 14 -9 14 -112 1 -356 -12 -237 -28 -429 -43 -527 l-12
-78 -45 -6 c-80 -12 -190 -49 -190 -64 0 -18 8 -18 86 -1 33 7 79 10 101 7
l39 -6 -32 -285 c-32 -286 -46 -392 -109 -810 -19 -124 -43 -310 -55 -415 -28
-259 -58 -484 -75 -579 -8 -43 -15 -88 -14 -100 0 -20 1 -20 9 -1 10 22 73
441 90 600 6 55 33 249 61 430 56 374 122 816 147 983 9 61 19 112 23 112 18
0 91 -274 114 -428 9 -53 18 -160 21 -237 6 -134 4 -147 -30 -310 -20 -93 -57
-242 -81 -330 -45 -163 -245 -966 -245 -986 0 -5 4 -7 10 -4 16 10 55 147 130
460 69 291 198 785 207 795 2 2 1 -59 -2 -135 l-5 -140 65 235 c36 129 82 301
102 383 21 81 41 147 45 147 3 0 16 -26 28 -57 12 -32 82 -177 156 -323 74
-146 169 -338 210 -428 152 -330 392 -799 419 -822 8 -7 15 -9 15 -5 0 4 -56
119 -126 254 -69 135 -157 316 -196 401 -124 272 -213 461 -358 758 l-141 290
43 151 c24 83 46 151 49 151 3 0 47 -62 99 -137 51 -76 108 -156 126 -179 38
-48 152 -241 176 -299 17 -40 70 -209 148 -470 87 -292 267 -831 296 -887 29
-56 26 -15 -4 63 -50 127 -187 551 -281 869 -49 168 -93 315 -97 325 -12 35
10 4 76 -105 83 -136 132 -202 143 -191 4 4 -32 100 -81 212 -49 112 -103 242
-120 289 -16 47 -42 112 -57 145 -14 33 -33 80 -42 105 -8 25 -44 113 -80 195
-36 83 -93 229 -128 325 -35 96 -76 211 -92 254 l-30 79 158 191 c233 283 212
261 235 248 11 -6 148 -54 303 -107 156 -52 332 -115 391 -140 92 -37 257 -81
268 -70 2 2 -21 11 -50 20 -132 43 -616 223 -742 276 -76 32 -208 94 -292 138
-85 44 -154 76 -154 72 0 -10 94 -98 135 -128 l29 -21 -45 -69 c-25 -37 -94
-129 -154 -202 -59 -74 -112 -145 -117 -157 -9 -19 10 -75 112 -336 68 -172
130 -326 138 -343 17 -34 87 -222 136 -365 35 -101 50 -170 37 -170 -18 0
-319 443 -404 593 l-55 98 -11 -33 c-6 -18 -38 -145 -71 -283 -82 -339 -117
-453 -134 -434 -2 2 -11 76 -20 164 -22 200 -43 317 -99 531 -25 93 -47 194
-51 225 -8 75 7 225 43 422 17 89 35 200 41 247 18 141 51 291 76 354 13 33
23 61 21 62 -3 4 -252 -22 -497 -52 -113 -13 -228 -24 -255 -24 l-50 0 -80
116 c-44 64 -113 165 -154 223 -41 58 -116 169 -167 246 -128 193 -123 187
-206 219 -40 16 -77 32 -81 36 -7 6 -27 190 -22 198 1 2 89 -64 201 -151 29
-23 30 -18 3 34 -11 23 -17 44 -14 47 9 9 53 -45 72 -87 8 -19 52 -76 96 -126
45 -50 112 -129 148 -176 37 -46 118 -140 180 -208 63 -68 130 -142 150 -165
l36 -41 59 13 c33 6 214 63 404 126 l345 114 52 -48 c82 -75 199 -153 381
-253 92 -51 187 -106 212 -123 25 -17 180 -114 345 -216 165 -102 358 -222
429 -267 71 -44 133 -81 137 -81 20 0 6 17 -41 49 -48 32 -50 35 -50 81 0 72
-15 100 -92 165 -39 33 -160 148 -268 256 -189 188 -198 199 -209 248 -6 29
-11 55 -11 59 0 4 60 7 133 8 132 1 217 15 311 52 l39 15 -7 76 c-9 108 -31
204 -67 293 -40 99 -45 103 -111 88 -58 -13 -297 -157 -358 -215 -131 -125
-485 -325 -575 -325 -20 0 -81 43 -232 162 -7 6 -49 -4 -117 -27 -59 -19 -121
-35 -138 -35 -17 0 -111 22 -207 50 -548 154 -802 283 -964 490 -59 75 -65 80
-116 91 -41 8 -63 20 -87 46 -21 22 -39 33 -48 30 -9 -4 -18 -2 -21 3 -4 6
-13 10 -21 10 -12 0 -14 -18 -8 -122z m2946 -250 c25 -52 89 -314 82 -332 -12
-30 -209 -70 -314 -64 -62 4 -96 14 -195 56 -66 28 -121 49 -123 47 -9 -9 13
-26 88 -70 l80 -47 0 -49 c0 -67 18 -107 71 -153 63 -55 369 -359 366 -362 -6
-6 -328 87 -379 109 -72 32 -606 364 -607 377 0 3 73 43 163 88 116 59 199
110 282 174 232 175 394 271 449 265 12 -1 27 -17 37 -39z m-2333 -98 c118
-59 276 -122 426 -170 150 -47 315 -110 315 -120 0 -9 -87 -50 -106 -50 -9 0
-46 13 -82 29 -37 16 -132 53 -212 81 -191 68 -292 117 -376 184 -61 48 -124
114 -124 131 0 3 17 -6 38 -19 21 -13 76 -43 121 -66z m235 -220 c76 -40 148
-69 229 -91 64 -18 117 -36 117 -40 0 -9 -99 -45 -203 -73 l-87 -23 -27 36
c-15 20 -57 68 -93 106 -62 66 -128 145 -144 173 -11 18 80 -20 208 -88z
m2085 -672 c178 -57 192 -67 207 -148 10 -56 -8 -56 -107 1 -87 49 -250 158
-274 181 -16 16 69 -1 174 -34z"/>
<path d="M3167 3243 c-75 -78 -183 -206 -199 -237 -10 -18 -3 -28 63 -89 79
-72 664 -518 764 -581 33 -21 87 -62 120 -90 102 -88 265 -216 275 -216 6 0
10 4 10 8 0 8 -196 181 -300 264 -244 196 -512 408 -598 472 -56 43 -109 88
-117 100 -14 19 -14 21 4 24 43 7 161 -17 191 -38 26 -19 38 -21 83 -15 107
15 114 45 10 45 -54 0 -71 4 -89 21 -30 28 -81 38 -190 39 -78 0 -93 3 -109
20 -18 19 -16 23 79 162 53 79 96 151 96 161 0 32 -29 17 -93 -50z"/>
<path d="M3268 3120 c-37 -28 -88 -59 -114 -70 -33 -14 -44 -24 -37 -31 7 -7
41 -2 109 17 152 41 143 34 130 88 -6 25 -13 46 -16 46 -3 0 -36 -23 -72 -50z"/>
<path d="M3238 3016 c-155 -26 -155 -41 -1 -51 96 -6 123 -11 149 -29 30 -20
39 -21 131 -14 54 4 105 11 113 14 26 11 -29 25 -120 31 -78 5 -88 8 -120 37
l-35 32 -117 -20z"/>
<path d="M1845 2509 c-33 -28 -105 -84 -160 -125 -206 -155 -251 -190 -300
-234 -27 -25 -85 -72 -128 -104 -42 -32 -80 -63 -83 -68 -11 -17 29 -47 73
-54 l42 -6 238 233 c131 129 275 271 320 315 46 45 83 84 83 88 0 16 -30 0
-85 -45z"/>
<path d="M1723 2083 c-402 -414 -395 -406 -380 -425 18 -24 87 -68 106 -68 13
0 467 593 579 756 19 28 20 44 2 44 -4 0 -142 -138 -307 -307z"/>
<path d="M3647 2163 c9 -23 115 -204 183 -313 119 -190 132 -209 146 -221 24
-20 16 3 -51 156 -36 81 -64 149 -62 151 2 2 47 -16 100 -42 111 -52 167 -66
167 -41 0 9 -19 26 -42 38 -36 19 -230 148 -384 257 -52 36 -66 40 -57 15z"/>
<path d="M3211 1898 c11 -29 40 -98 64 -153 76 -176 104 -257 130 -380 52
-239 75 -295 126 -295 25 0 29 4 29 28 0 22 -55 280 -76 357 -3 11 58 -45 134
-125 77 -80 143 -142 146 -139 13 13 -537 759 -560 759 -11 0 -9 -11 7 -52z"/>
<path d="M1977 1778 c-89 -114 -257 -359 -257 -375 0 -7 5 -13 10 -13 6 0 24
-9 39 -21 48 -35 70 -23 101 56 16 39 62 152 103 253 42 100 74 182 72 182 -2
0 -33 -37 -68 -82z"/>
<path d="M2610 1688 c0 -7 33 -170 74 -362 76 -361 82 -380 126 -369 11 3 20
8 20 12 0 3 -9 62 -20 131 -11 69 -20 129 -20 135 0 5 57 -50 126 -123 70 -73
128 -131 131 -129 2 3 -75 139 -172 303 -222 374 -265 440 -265 402z"/>
<path d="M2517 1428 c-7 -29 8 -457 16 -465 9 -8 57 25 64 43 7 19 -58 444
-68 444 -4 0 -9 -10 -12 -22z"/>
</g>
</svg>
